<svg width="232" height="56" viewBox="0 0 232 56" fill="none" xmlns="http://www.w3.org/2000/svg">
<path d="M87.4318 47H78.9091L88.5114 17.9091H99.3068L108.909 47H100.386L94.0227 25.9205H93.7955L87.4318 47ZM85.8409 35.5227H101.864V41.4318H85.8409V35.5227ZM136.881 17.9091V47H130.29L119.779 31.7159H119.609V47H111.711V17.9091H118.415L128.756 33.1364H128.984V17.9091H136.881ZM167.776 28.8182H159.765C159.708 28.1553 159.557 27.554 159.31 27.0142C159.074 26.4744 158.742 26.0104 158.316 25.6222C157.899 25.2244 157.393 24.9214 156.796 24.7131C156.2 24.4953 155.522 24.3864 154.765 24.3864C153.439 24.3864 152.317 24.7083 151.398 25.3523C150.489 25.9962 149.798 26.9195 149.325 28.1222C148.861 29.3248 148.629 30.7689 148.629 32.4545C148.629 34.2348 148.865 35.7263 149.339 36.929C149.822 38.1222 150.518 39.0218 151.427 39.6278C152.336 40.2244 153.43 40.5227 154.708 40.5227C155.437 40.5227 156.091 40.4328 156.668 40.2528C157.246 40.0634 157.748 39.7936 158.174 39.4432C158.6 39.0928 158.946 38.6714 159.211 38.179C159.486 37.6771 159.67 37.1136 159.765 36.4886L167.776 36.5455C167.682 37.7765 167.336 39.0312 166.739 40.3097C166.143 41.5786 165.295 42.7528 164.197 43.8324C163.108 44.9025 161.758 45.7642 160.148 46.4176C158.539 47.071 156.668 47.3977 154.538 47.3977C151.867 47.3977 149.471 46.8248 147.35 45.679C145.238 44.5331 143.567 42.8475 142.336 40.6222C141.114 38.3968 140.504 35.6742 140.504 32.4545C140.504 29.2159 141.129 26.4886 142.379 24.2727C143.629 22.0473 145.314 20.3665 147.435 19.2301C149.557 18.0843 151.924 17.5114 154.538 17.5114C156.375 17.5114 158.065 17.7623 159.609 18.2642C161.152 18.7661 162.506 19.5 163.671 20.4659C164.836 21.4223 165.773 22.6013 166.484 24.0028C167.194 25.4044 167.625 27.0095 167.776 28.8182ZM171.359 47V17.9091H179.257V29.2727H189.712V17.9091H197.609V47H189.712V35.6364H179.257V47H171.359ZM229.541 32.4545C229.541 35.6932 228.911 38.4252 227.652 40.6506C226.393 42.8665 224.693 44.5473 222.553 45.6932C220.412 46.8295 218.026 47.3977 215.393 47.3977C212.742 47.3977 210.346 46.8248 208.206 45.679C206.075 44.5237 204.38 42.8381 203.121 40.6222C201.871 38.3968 201.246 35.6742 201.246 32.4545C201.246 29.2159 201.871 26.4886 203.121 24.2727C204.38 22.0473 206.075 20.3665 208.206 19.2301C210.346 18.0843 212.742 17.5114 215.393 17.5114C218.026 17.5114 220.412 18.0843 222.553 19.2301C224.693 20.3665 226.393 22.0473 227.652 24.2727C228.911 26.4886 229.541 29.2159 229.541 32.4545ZM221.416 32.4545C221.416 30.7121 221.184 29.2443 220.72 28.0511C220.266 26.8485 219.589 25.9394 218.689 25.3239C217.799 24.6989 216.7 24.3864 215.393 24.3864C214.087 24.3864 212.983 24.6989 212.084 25.3239C211.194 25.9394 210.517 26.8485 210.053 28.0511C209.598 29.2443 209.371 30.7121 209.371 32.4545C209.371 34.197 209.598 35.6695 210.053 36.8722C210.517 38.0653 211.194 38.9744 212.084 39.5994C212.983 40.215 214.087 40.5227 215.393 40.5227C216.7 40.5227 217.799 40.215 218.689 39.5994C219.589 38.9744 220.266 38.0653 220.72 36.8722C221.184 35.6695 221.416 34.197 221.416 32.4545Z" fill="white"/>
<path fill-rule="evenodd" clip-rule="evenodd" d="M19.4781 0.111056C17.1373 1.03611 15.4807 2.20475 12.7959 4.82473C5.93307 11.5212 0.724324 21.9647 0.0563153 30.3672C-0.454342 36.7912 2.57918 44.7121 6.26393 46.5759C7.4449 47.1733 9.39878 47.1355 10.8007 46.4883C12.9417 45.5 14.369 43.8498 17.3838 38.8776C20.3731 33.9474 21.6982 32.3962 23.6525 31.5389C24.4628 31.1836 24.8805 31.1425 26.6004 31.2483C29.7942 31.4449 30.8655 31.8162 35.8969 34.4695C37.6265 35.3816 38.115 35.5483 39.044 35.5429C40.2058 35.536 40.3321 35.4844 44.2347 33.4209C47.032 31.9419 48.8482 31.3871 51.3696 31.2413C53.1298 31.1395 53.4932 31.1809 54.4623 31.5943C55.9447 32.2266 57.8212 34.25 59.5502 37.0811C62.422 41.7832 63.0428 42.7178 64.1639 44.0268C64.7996 44.7693 65.8759 45.7149 66.5561 46.1289C67.6175 46.7747 68.0073 46.8919 69.311 46.9572C70.4609 47.0148 71.0268 46.9418 71.6413 46.6564C73.6212 45.7372 75.7009 42.7207 76.8414 39.1139C78.588 33.5904 78.3681 28.3126 76.1254 21.9242C72.8741 12.6634 64.464 2.11593 58.8595 0.270189C58.1152 0.025145 57.3729 -0.0445408 56.2603 0.0261851C54.9388 0.110224 54.4109 0.270605 52.7732 1.08479C50.4161 2.25696 49.1084 3.2336 44.6543 7.14849C40.7329 10.5951 39.4315 11.3881 38.3023 11.0187C37.4723 10.747 35.8439 9.48161 32.4149 6.44331C29.0857 3.49342 27.0637 2.00609 24.9778 0.972456C23.4295 0.20508 23.0512 0.104192 21.5161 0.048859C20.5682 0.0147442 19.6512 0.0426185 19.4781 0.111056ZM25.41 9.13131C26.9002 9.68422 28.8554 11.0738 31.8564 13.7129C35.6055 17.01 37.0402 17.8568 38.8847 17.8612C40.745 17.8658 42.6922 16.6786 46.5425 13.1924C50.3032 9.78761 53.2509 8.28718 55.5782 8.59338C60.8186 9.28254 67.3752 16.8146 69.7207 24.8402C71.1493 29.7277 70.7028 36.0146 68.8683 36.8434C68.511 37.0048 68.1141 36.9907 67.3957 36.7914C65.8461 36.3612 64.1702 34.6301 61.4178 30.6162C57.4977 24.8994 55.6334 23.2686 52.8365 23.1088C50.4601 22.973 48.5671 23.9303 44.387 27.3817C39.4927 31.4227 38.2539 31.4464 33.5912 27.5872C29.0742 23.849 27.8051 23.1777 25.2476 23.1744C23.9227 23.1727 23.3653 23.2719 22.6014 23.6451C21.2587 24.301 19.3333 26.2776 17.6492 28.7288C14.7361 32.9695 13.6301 34.4298 12.6276 35.3586C11.3846 36.5101 9.84377 37.1623 9.02408 36.8839C7.10418 36.2316 6.54695 29.9278 7.96773 24.934C10.4025 16.3768 18.0053 8.15634 23.0743 8.60024C23.7253 8.65724 24.7764 8.89625 25.41 9.13131Z" fill="white"/>
</svg>
