<svg width="78" height="47" viewBox="0 0 78 47" fill="none" xmlns="http://www.w3.org/2000/svg">
<path fill-rule="evenodd" clip-rule="evenodd" d="M19.4781 0.111056C17.1373 1.03611 15.4807 2.20475 12.7959 4.82473C5.93307 11.5212 0.724324 21.9647 0.0563153 30.3672C-0.454342 36.7912 2.57918 44.7121 6.26393 46.5759C7.4449 47.1733 9.39878 47.1355 10.8007 46.4883C12.9417 45.5 14.369 43.8498 17.3838 38.8776C20.3731 33.9474 21.6982 32.3962 23.6525 31.5389C24.4628 31.1836 24.8805 31.1425 26.6004 31.2483C29.7942 31.4449 30.8655 31.8162 35.8969 34.4695C37.6265 35.3816 38.115 35.5483 39.044 35.5429C40.2058 35.536 40.3321 35.4844 44.2347 33.4209C47.032 31.9419 48.8482 31.3871 51.3696 31.2413C53.1298 31.1395 53.4932 31.1809 54.4623 31.5943C55.9447 32.2266 57.8212 34.25 59.5502 37.0811C62.422 41.7832 63.0428 42.7178 64.1639 44.0268C64.7996 44.7693 65.8759 45.7149 66.5561 46.1289C67.6175 46.7747 68.0073 46.8919 69.311 46.9572C70.4609 47.0148 71.0268 46.9418 71.6413 46.6564C73.6212 45.7372 75.7009 42.7207 76.8414 39.1139C78.588 33.5904 78.3681 28.3126 76.1254 21.9242C72.8741 12.6634 64.464 2.11593 58.8595 0.270189C58.1152 0.025145 57.3729 -0.0445408 56.2603 0.0261851C54.9388 0.110224 54.4109 0.270605 52.7732 1.08479C50.4161 2.25696 49.1084 3.2336 44.6543 7.14849C40.7329 10.5951 39.4315 11.3881 38.3023 11.0187C37.4723 10.747 35.8439 9.48161 32.4149 6.44331C29.0857 3.49342 27.0637 2.00609 24.9778 0.972456C23.4295 0.20508 23.0512 0.104192 21.5161 0.048859C20.5682 0.0147442 19.6512 0.0426185 19.4781 0.111056ZM25.41 9.13131C26.9002 9.68422 28.8554 11.0738 31.8564 13.7129C35.6055 17.01 37.0402 17.8568 38.8847 17.8612C40.745 17.8658 42.6922 16.6786 46.5425 13.1924C50.3032 9.78761 53.2509 8.28718 55.5782 8.59338C60.8186 9.28254 67.3752 16.8146 69.7207 24.8402C71.1493 29.7277 70.7028 36.0146 68.8683 36.8434C68.511 37.0048 68.1141 36.9907 67.3957 36.7914C65.8461 36.3612 64.1702 34.6301 61.4178 30.6162C57.4977 24.8994 55.6334 23.2686 52.8365 23.1088C50.4601 22.973 48.5671 23.9303 44.387 27.3817C39.4927 31.4227 38.2539 31.4464 33.5912 27.5872C29.0742 23.849 27.8051 23.1777 25.2476 23.1744C23.9227 23.1727 23.3653 23.2719 22.6014 23.6451C21.2587 24.301 19.3333 26.2776 17.6492 28.7288C14.7361 32.9695 13.6301 34.4298 12.6276 35.3586C11.3846 36.5101 9.84377 37.1623 9.02408 36.8839C7.10418 36.2316 6.54695 29.9278 7.96773 24.934C10.4025 16.3768 18.0053 8.15634 23.0743 8.60024C23.7253 8.65724 24.7764 8.89625 25.41 9.13131Z" fill="white"/>
</svg>
